<?xml version="1.0" encoding="UTF-8" standalone="no"?>
<!-- Created with Inkscape (http://www.inkscape.org/) -->

<svg
   width="3.175mm"
   height="6.3499842mm"
   viewBox="0 0 3.175 6.3499842"
   version="1.1"
   id="svg1"
   inkscape:version="1.3.2 (091e20e, 2023-11-25, custom)"
   sodipodi:docname="GITHUB Navestidla.svg"
   inkscape:export-filename="Height of railway signals.svg"
   inkscape:export-xdpi="96"
   inkscape:export-ydpi="96"
   xml:space="preserve"
   xmlns:inkscape="http://www.inkscape.org/namespaces/inkscape"
   xmlns:sodipodi="http://sodipodi.sourceforge.net/DTD/sodipodi-0.dtd"
   xmlns="http://www.w3.org/2000/svg"
   xmlns:svg="http://www.w3.org/2000/svg"><sodipodi:namedview
     id="namedview1"
     pagecolor="#ffffff"
     bordercolor="#000000"
     borderopacity="0.25"
     inkscape:showpageshadow="2"
     inkscape:pageopacity="0.0"
     inkscape:pagecheckerboard="0"
     inkscape:deskcolor="#d1d1d1"
     inkscape:document-units="mm"
     showgrid="false"
     inkscape:zoom="1"
     inkscape:cx="-1776.5"
     inkscape:cy="1023"
     inkscape:window-width="1920"
     inkscape:window-height="1053"
     inkscape:window-x="-10"
     inkscape:window-y="-10"
     inkscape:window-maximized="1"
     inkscape:current-layer="layer1"
     showguides="true"><inkscape:grid
       id="grid1"
       units="px"
       originx="476.25001"
       originy="-153.45834"
       spacingx="0.26458333"
       spacingy="0.26458334"
       empcolor="#0099e5"
       empopacity="0.30196078"
       color="#0099e5"
       opacity="0.14901961"
       empspacing="5"
       dotted="false"
       gridanglex="30"
       gridanglez="30"
       visible="false" /></sodipodi:namedview><defs
     id="defs1" /><g
     inkscape:label="Vrstva 1"
     inkscape:groupmode="layer"
     id="layer1"
     transform="translate(476.25001,-153.45834)"><g
       id="g3"><rect
         style="fill:#000000;fill-opacity:1;stroke:none;stroke-width:0.0604761;stroke-linejoin:miter;stroke-dasharray:none;stroke-opacity:1"
         id="rect262-7-2-0-0-1-3-4-8-0-0-4-8-4"
         width="3.1750147"
         height="6.3499951"
         x="-476.25"
         y="153.45834"
         ry="0.26458749"
         rx="0.26458251"
         inkscape:export-filename=".\Cs_LcSc.svg"
         inkscape:export-xdpi="96"
         inkscape:export-ydpi="96" /><path
         style="fill:#ffffff;fill-opacity:1;stroke:none;stroke-width:0.380729;stroke-linecap:round;stroke-linejoin:round"
         id="path413-2-6-3-1-3-2-1-6"
         sodipodi:type="arc"
         sodipodi:cx="-474.92706"
         sodipodi:cy="154.78127"
         sodipodi:rx="0.79374999"
         sodipodi:ry="0.79374999"
         sodipodi:start="2.4767237"
         sodipodi:end="2.4665004"
         sodipodi:open="true"
         sodipodi:arc-type="arc"
         d="m -475.55174,155.27097 a 0.79374999,0.79374999 0 0 1 0.13337,-1.11313 0.79374999,0.79374999 0 0 1 1.11348,0.13053 0.79374999,0.79374999 0 0 1 -0.12769,1.1138 0.79374999,0.79374999 0 0 1 -1.11412,-0.12484" /><path
         style="fill:#ffffff;fill-opacity:1;stroke:none;stroke-width:0.380729;stroke-linecap:round;stroke-linejoin:round"
         id="path413-2-6-3-1-3-2-1-6-4"
         sodipodi:type="arc"
         sodipodi:cx="-474.92706"
         sodipodi:cy="156.63333"
         sodipodi:rx="0.79374999"
         sodipodi:ry="0.79374999"
         sodipodi:start="2.4767237"
         sodipodi:end="2.4665004"
         sodipodi:open="true"
         sodipodi:arc-type="arc"
         d="m -475.55174,157.12304 a 0.79374999,0.79374999 0 0 1 0.13337,-1.11313 0.79374999,0.79374999 0 0 1 1.11348,0.13053 0.79374999,0.79374999 0 0 1 -0.12769,1.1138 0.79374999,0.79374999 0 0 1 -1.11412,-0.12484" /><path
         style="fill:#606060;fill-opacity:1;stroke:none;stroke-width:0.380729;stroke-linecap:round;stroke-linejoin:round"
         id="path413-2-6-3-1-3-2-1-2-4"
         sodipodi:type="arc"
         sodipodi:cx="-474.92706"
         sodipodi:cy="158.48543"
         sodipodi:rx="0.79374999"
         sodipodi:ry="0.79374999"
         sodipodi:start="2.4767237"
         sodipodi:end="2.4665004"
         sodipodi:open="true"
         sodipodi:arc-type="arc"
         d="m -475.55174,158.97514 a 0.79374999,0.79374999 0 0 1 0.13337,-1.11314 0.79374999,0.79374999 0 0 1 1.11348,0.13053 0.79374999,0.79374999 0 0 1 -0.12769,1.1138 0.79374999,0.79374999 0 0 1 -1.11412,-0.12483" /><path
         id="path1367-4-8-5-4"
         style="fill:#3f3f3f;fill-opacity:1;stroke:none;stroke-width:0.0721461;stroke-linecap:round;stroke-linejoin:round;stroke-dasharray:none;stroke-opacity:1"
         d="m -474.95499,155.84058 a 0.79360812,0.79360696 0 0 0 -0.70512,0.48854 0.79360812,0.79360696 0 0 0 0.42823,1.03725 0.79360812,0.79360696 0 0 0 1.03738,-0.42781 l 6.6e-4,-0.001 a 0.79360812,0.79360696 0 0 0 -0.42893,-1.03695 0.79360812,0.79360696 0 0 0 -0.33198,-0.06 z m 0.0278,0.039 0.21671,0.37482 0.43767,-2.8e-4 -0.21855,0.38103 0.21855,0.37806 -0.43837,-2.8e-4 -0.21601,0.37469 -0.21588,-0.3744 h -0.43851 l 0.21869,-0.3799 -0.21869,-0.37919 h 0.43794 z" /></g></g></svg>
